<?xml version="1.0" standalone="no"?><!DOCTYPE svg PUBLIC "-//W3C//DTD SVG 1.1//EN" "http://www.w3.org/Graphics/SVG/1.1/DTD/svg11.dtd"><svg xmlns="http://www.w3.org/2000/svg" version="1.1" width="623.344" height="1123.344" xmlns:xlink="http://www.w3.org/1999/xlink" xlink="http://www.w3.org/1999/xlink" style="position:relative;overflow:hidden;" viewBox="59.781 -12 623.344 1123.344"><defs/><g><g width="508.333" height="1008.333" transform="scale(1,1) translate(120.833,44.839)"><g transform="scale(1,1) translate(0,0)" fill="none" stroke="#000000" stroke-opacity="1"><path d="M0,1008.333 L0,0 L508.333,0 L508.333,1008.333 L0,1008.333 z" stroke-width="8.333" stroke-dasharray="none"/></g><g fill="#9999FF" stroke="#9999FF" stroke-opacity="1" opacity="1" transform="scale(1,1) translate(0,0)"><path fill="none" stroke-width="1" stroke-dasharray="none" d="M-7.167,1004.167 L-36.979,1004.167 L-36.979,524.467 M-36.979,483.867 L-36.979,4.167 L-7.167,4.167 M4.167,-7.167 L4.167,-36.979 L233.867,-36.979 M274.467,-36.979 L504.167,-36.979 L504.167,-7.167 M515.5,4.167 L545.312,4.167 L545.312,483.867 M545.312,524.467 L545.312,1004.167 L515.5,1004.167 M504.167,1015.5 L504.167,1045.312 L274.467,1045.312 M233.867,1045.312 L4.167,1045.312 L4.167,1015.5"/><g><g stroke-dasharray="none"><path d="M-8.167,1003.167L-6.167,1003.167L-6.167,1005.167L-8.167,1005.167z" stroke-width="0" fill="none"/></g></g></g><g width="34.600242614746094" height="15.624999046325684" transform="rotate(270,-44.792,521.467) scale(1,1) translate(-44.792,521.467)" opacity="1"><text width="34.600242614746094" height="15.624999046325684" transform="scale(1,1) translate(0,0)" xml:space="preserve"><tspan xml:space="preserve" text-rendering="optimizeSpeed" font-size="13.88888888888889" font-weight="normal" font-style="normal" fill="#000" opacity="1" x="0" text-anchor="start" y="12.5" textLength="34.600242614746094" style="font-family: Arial, Helvetica Neue, Helvetica, sans-serif;">40' 0"</tspan></text></g><g width="34.600242614746094" height="15.624999046325684" transform="rotate(360,236.867,-44.792) scale(1,1) translate(236.867,-44.792)" opacity="1"><text width="34.600242614746094" height="15.624999046325684" transform="scale(1,1) translate(0,0)" xml:space="preserve"><tspan xml:space="preserve" text-rendering="optimizeSpeed" font-size="13.88888888888889" font-weight="normal" font-style="normal" fill="#000" opacity="1" x="0" text-anchor="start" y="12.5" textLength="34.600242614746094" style="font-family: Arial, Helvetica Neue, Helvetica, sans-serif;">20' 0"</tspan></text></g><g width="34.600242614746094" height="15.624999046325684" transform="rotate(270,537.5,521.467) scale(1,1) translate(537.5,521.467)" opacity="1"><text width="34.600242614746094" height="15.624999046325684" transform="scale(1,1) translate(0,0)" xml:space="preserve"><tspan xml:space="preserve" text-rendering="optimizeSpeed" font-size="13.88888888888889" font-weight="normal" font-style="normal" fill="#000" opacity="1" x="0" text-anchor="start" y="12.5" textLength="34.600242614746094" style="font-family: Arial, Helvetica Neue, Helvetica, sans-serif;">40' 0"</tspan></text></g><g width="34.600242614746094" height="15.624999046325684" transform="rotate(360,236.867,1037.5) scale(1,1) translate(236.867,1037.5)" opacity="1"><text width="34.600242614746094" height="15.624999046325684" transform="scale(1,1) translate(0,0)" xml:space="preserve"><tspan xml:space="preserve" text-rendering="optimizeSpeed" font-size="13.88888888888889" font-weight="normal" font-style="normal" fill="#000" opacity="1" x="0" text-anchor="start" y="12.5" textLength="34.600242614746094" style="font-family: Arial, Helvetica Neue, Helvetica, sans-serif;">20' 0"</tspan></text></g><g width="34.600242614746094" height="15.624999046325684" transform="rotate(360,322.32,1017.5) scale(1,1) translate(322.32,1017.5)" opacity="1"><text width="34.600242614746094" height="15.624999046325684" transform="scale(1,1) translate(0,0)" xml:space="preserve"><tspan xml:space="preserve" text-rendering="optimizeSpeed" font-size="13.88888888888889" font-weight="normal" font-style="normal" fill="#000" opacity="1" x="0" text-anchor="start" y="12.5" textLength="34.600242614746094" style="font-family: Arial, Helvetica Neue, Helvetica, sans-serif;">13' 2"</tspan></text></g><g transform="scale(1,1) translate(0,0)" fill="black" opacity="1"><path d="M360.826,1029.219 L360.826,1021.406 L368.639,1025.312 L360.826,1029.219 z"/></g><g transform="scale(1,1) translate(0,0)" fill="black" opacity="1"><path d="M318.414,1029.219 L318.414,1021.406 L310.601,1025.312 L318.414,1029.219 z"/></g><g width="34.600242614746094" height="15.624999046325684" transform="rotate(360,34.968,1017.5) scale(1,1) translate(34.968,1017.5)" opacity="1"><text width="34.600242614746094" height="15.624999046325684" transform="scale(1,1) translate(0,0)" xml:space="preserve"><tspan xml:space="preserve" text-rendering="optimizeSpeed" font-size="13.88888888888889" font-weight="normal" font-style="normal" fill="#000" opacity="1" x="0" text-anchor="start" y="12.5" textLength="34.600242614746094" style="font-family: Arial, Helvetica Neue, Helvetica, sans-serif;">3' 10"</tspan></text></g><g transform="scale(1,1) translate(0,0)" fill="black" opacity="1"><path d="M73.475,1029.219 L73.475,1021.406 L81.287,1025.312 L73.475,1029.219 z"/></g><g transform="scale(1,1) translate(0,0)" fill="black" opacity="1"><path d="M31.062,1029.219 L31.062,1021.406 L23.249,1025.312 L31.062,1029.219 z"/></g></g><g width="0" height="99.005" transform="scale(1,1) translate(200,950)"><g transform="scale(1,1) translate(0,0)" fill="#000000" stroke="#000000" stroke-opacity="1"><path d="M0,99.005 L0,0" fill="none" stroke-width="8.333" stroke-dasharray="none"/><g><g stroke-dasharray="none"><path d="M-8.333,90.672L8.333,90.672L8.333,107.338L-8.333,107.338z" stroke-width="0" fill="none"/></g></g></g><g fill="#9999FF" stroke="#9999FF" stroke-opacity="1" opacity="1" transform="scale(1,1) translate(0,0)"><path fill="none" stroke-width="1" stroke-dasharray="none" d="M-11.333,99.005 L-41.146,99.005 L-41.146,65.942 M-41.146,33.063 L-41.146,0 L-11.333,0"/><g><g stroke-dasharray="none"><path d="M-12.333,98.005L-10.333,98.005L-10.333,100.005L-12.333,100.005z" stroke-width="0" fill="none"/></g></g></g><g width="26.8789119720459" height="15.624999046325684" transform="rotate(270,-48.958,62.942) scale(1,1) translate(-48.958,62.942)" opacity="1"><text width="26.8789119720459" height="15.624999046325684" transform="scale(1,1) translate(0,0)" xml:space="preserve"><tspan xml:space="preserve" text-rendering="optimizeSpeed" font-size="13.88888888888889" font-weight="normal" font-style="normal" fill="#000" opacity="1" x="0" text-anchor="start" y="12.5" textLength="26.8789119720459" style="font-family: Arial, Helvetica Neue, Helvetica, sans-serif;">4' 0"</tspan></text></g></g><g width="216.667" height="0" transform="scale(1,1) translate(116.667,950)"><g transform="scale(1,1) translate(0,0)" fill="#000000" stroke="#000000" stroke-opacity="1"><path d="M0,0 L216.667,0" fill="none" stroke-width="8.333" stroke-dasharray="none"/><g><g stroke-dasharray="none"><path d="M-8.333,-8.333L8.333,-8.333L8.333,8.333L-8.333,8.333z" stroke-width="0" fill="none"/></g></g></g><g fill="#9999FF" stroke="#9999FF" stroke-opacity="1" opacity="1" transform="scale(1,1) translate(0,0)"><path fill="none" stroke-width="1" stroke-dasharray="none" d="M0,-11.333 L0,-41.146 L91.894,-41.146 M124.773,-41.146 L216.667,-41.146 L216.667,-11.333"/><g><g stroke-dasharray="none"><path d="M-1,-12.333L1,-12.333L1,-10.333L-1,-10.333z" stroke-width="0" fill="none"/></g></g></g><g width="26.8789119720459" height="15.624999046325684" transform="scale(1,1) translate(94.894,-48.958)" opacity="1"><text width="26.8789119720459" height="15.624999046325684" transform="scale(1,1) translate(0,0)" xml:space="preserve"><tspan xml:space="preserve" text-rendering="optimizeSpeed" font-size="13.88888888888889" font-weight="normal" font-style="normal" fill="#000" opacity="1" x="0" text-anchor="start" y="12.5" textLength="26.8789119720459" style="font-family: Arial, Helvetica Neue, Helvetica, sans-serif;">8' 8"</tspan></text></g></g><g width="0" height="783.333" transform="scale(1,1) translate(333.333,200)"><g transform="scale(1,1) translate(0,0)" fill="#000000" stroke="#000000" stroke-opacity="1"><path d="M0,783.333 L0,0" fill="none" stroke-width="8.333" stroke-dasharray="none"/><g><g stroke-dasharray="none"><path d="M-8.333,775L8.333,775L8.333,791.666L-8.333,791.666z" stroke-width="0" fill="none"/></g></g></g><g fill="#9999FF" stroke="#9999FF" stroke-opacity="1" opacity="1" transform="scale(1,1) translate(0,0)"><path fill="none" stroke-width="1" stroke-dasharray="none" d="M-11.333,783.333 L-41.146,783.333 L-41.146,411.967 M-41.146,371.367 L-41.146,0 L-11.333,0"/><g><g stroke-dasharray="none"><path d="M-12.333,782.333L-10.333,782.333L-10.333,784.333L-12.333,784.333z" stroke-width="0" fill="none"/></g></g></g><g width="34.600242614746094" height="15.624999046325684" transform="rotate(270,-48.958,408.967) scale(1,1) translate(-48.958,408.967)" opacity="1"><text width="34.600242614746094" height="15.624999046325684" transform="scale(1,1) translate(0,0)" xml:space="preserve"><tspan xml:space="preserve" text-rendering="optimizeSpeed" font-size="13.88888888888889" font-weight="normal" font-style="normal" fill="#000" opacity="1" x="0" text-anchor="start" y="12.5" textLength="34.600242614746094" style="font-family: Arial, Helvetica Neue, Helvetica, sans-serif;">31' 4"</tspan></text></g><g width="26.8789119720459" height="15.624999046325684" transform="rotate(270,-28.958,721.433) scale(1,1) translate(-28.958,721.433)" opacity="1"><text width="26.8789119720459" height="15.624999046325684" transform="scale(1,1) translate(0,0)" xml:space="preserve"><tspan xml:space="preserve" text-rendering="optimizeSpeed" font-size="13.88888888888889" font-weight="normal" font-style="normal" fill="#000" opacity="1" x="0" text-anchor="start" y="12.5" textLength="26.8789119720459" style="font-family: Arial, Helvetica Neue, Helvetica, sans-serif;">6' 0"</tspan></text></g><g transform="scale(1,1) translate(0,0)" fill="black" opacity="1"><path d="M-25.052,725.339 L-17.239,725.339 L-21.146,733.152 L-25.052,725.339 z"/></g><g transform="scale(1,1) translate(0,0)" fill="black" opacity="1"><path d="M-25.052,690.648 L-17.239,690.648 L-21.146,682.835 L-25.052,690.648 z"/></g><g width="26.8789119720459" height="15.624999046325684" transform="rotate(270,-28.958,467.122) scale(1,1) translate(-28.958,467.122)" opacity="1"><text width="26.8789119720459" height="15.624999046325684" transform="scale(1,1) translate(0,0)" xml:space="preserve"><tspan xml:space="preserve" text-rendering="optimizeSpeed" font-size="13.88888888888889" font-weight="normal" font-style="normal" fill="#000" opacity="1" x="0" text-anchor="start" y="12.5" textLength="26.8789119720459" style="font-family: Arial, Helvetica Neue, Helvetica, sans-serif;">6' 4"</tspan></text></g><g transform="scale(1,1) translate(0,0)" fill="black" opacity="1"><path d="M-25.052,471.029 L-17.239,471.029 L-21.146,478.841 L-25.052,471.029 z"/></g><g transform="scale(1,1) translate(0,0)" fill="black" opacity="1"><path d="M-25.052,436.337 L-17.239,436.337 L-21.146,428.525 L-25.052,436.337 z"/></g><g width="26.8789119720459" height="15.624999046325684" transform="rotate(270,-28.958,208.348) scale(1,1) translate(-28.958,208.348)" opacity="1"><text width="26.8789119720459" height="15.624999046325684" transform="scale(1,1) translate(0,0)" xml:space="preserve"><tspan xml:space="preserve" text-rendering="optimizeSpeed" font-size="13.88888888888889" font-weight="normal" font-style="normal" fill="#000" opacity="1" x="0" text-anchor="start" y="12.5" textLength="26.8789119720459" style="font-family: Arial, Helvetica Neue, Helvetica, sans-serif;">7' 9"</tspan></text></g><g transform="scale(1,1) translate(0,0)" fill="black" opacity="1"><path d="M-25.052,212.255 L-17.239,212.255 L-21.146,220.067 L-25.052,212.255 z"/></g><g transform="scale(1,1) translate(0,0)" fill="black" opacity="1"><path d="M-25.052,177.563 L-17.239,177.563 L-21.146,169.751 L-25.052,177.563 z"/></g><g width="26.8789119720459" height="15.624999046325684" transform="rotate(270,-28.958,30.739) scale(1,1) translate(-28.958,30.739)" opacity="1"><text width="26.8789119720459" height="15.624999046325684" transform="scale(1,1) translate(0,0)" xml:space="preserve"><tspan xml:space="preserve" text-rendering="optimizeSpeed" font-size="13.88888888888889" font-weight="normal" font-style="normal" fill="#000" opacity="1" x="0" text-anchor="start" y="12.5" textLength="26.8789119720459" style="font-family: Arial, Helvetica Neue, Helvetica, sans-serif;">1' 5"</tspan></text></g><g transform="scale(1,1) translate(0,0)" fill="black" opacity="1"><path d="M-25.052,34.645 L-17.239,34.645 L-21.146,42.457 L-25.052,34.645 z"/></g><g transform="scale(1,1) translate(0,0)" fill="black" opacity="1"><path d="M-25.052,-0.047 L-17.239,-0.047 L-21.146,-7.859 L-25.052,-0.047 z"/></g></g><g width="328.361" height="150.995" transform="scale(1,1) translate(116.667,49.005)"><g transform="scale(1,1) translate(0,0)" fill="#000000" stroke="#000000" stroke-opacity="1"><path d="M0,150.995 L328.361,150.995 L328.361,0" fill="none" stroke-width="8.333" stroke-dasharray="none"/><g><g stroke-dasharray="none"><path d="M-8.333,142.662L8.333,142.662L8.333,159.328L-8.333,159.328z" stroke-width="0" fill="none"/></g></g></g><g fill="#9999FF" stroke="#9999FF" stroke-opacity="1" opacity="1" transform="scale(1,1) translate(0,0)"><path fill="none" stroke-width="1" stroke-dasharray="none" d="M0,162.328 L0,192.14 L143.881,192.14 M184.481,192.14 L328.361,192.14 L328.361,162.328 M339.695,150.995 L369.507,150.995 L369.507,91.937 M369.507,59.058 L369.507,0 L339.695,0"/><g><g stroke-dasharray="none"><path d="M-1,161.328L1,161.328L1,163.328L-1,163.328z" stroke-width="0" fill="none"/></g></g></g><g width="34.600242614746094" height="15.624999046325684" transform="scale(1,1) translate(146.881,184.328)" opacity="1"><text width="34.600242614746094" height="15.624999046325684" transform="scale(1,1) translate(0,0)" xml:space="preserve"><tspan xml:space="preserve" text-rendering="optimizeSpeed" font-size="13.88888888888889" font-weight="normal" font-style="normal" fill="#000" opacity="1" x="0" text-anchor="start" y="12.5" textLength="34.600242614746094" style="font-family: Arial, Helvetica Neue, Helvetica, sans-serif;">13' 2"</tspan></text></g><g width="26.8789119720459" height="15.624999046325684" transform="rotate(270,361.695,88.937) scale(1,1) translate(361.695,88.937)" opacity="1"><text width="26.8789119720459" height="15.624999046325684" transform="scale(1,1) translate(0,0)" xml:space="preserve"><tspan xml:space="preserve" text-rendering="optimizeSpeed" font-size="13.88888888888889" font-weight="normal" font-style="normal" fill="#000" opacity="1" x="0" text-anchor="start" y="12.5" textLength="26.8789119720459" style="font-family: Arial, Helvetica Neue, Helvetica, sans-serif;">6' 0"</tspan></text></g><g width="26.8789119720459" height="15.624999046325684" transform="scale(1,1) translate(105.496,164.328)" opacity="1"><text width="26.8789119720459" height="15.624999046325684" transform="scale(1,1) translate(0,0)" xml:space="preserve"><tspan xml:space="preserve" text-rendering="optimizeSpeed" font-size="13.88888888888889" font-weight="normal" font-style="normal" fill="#000" opacity="1" x="0" text-anchor="start" y="12.5" textLength="26.8789119720459" style="font-family: Arial, Helvetica Neue, Helvetica, sans-serif;">9' 6"</tspan></text></g><g transform="scale(1,1) translate(0,0)" fill="black" opacity="1"><path d="M101.589,168.234 L101.589,176.047 L93.777,172.14 L101.589,168.234 z"/></g><g transform="scale(1,1) translate(0,0)" fill="black" opacity="1"><path d="M136.281,168.234 L136.281,176.047 L144.093,172.14 L136.281,168.234 z"/></g></g><g width="308.824" height="100" transform="scale(1,1) translate(125,591.667)"><g transform="scale(1,1) translate(0,0)" fill="#000000" stroke="#000000" stroke-opacity="1"><path d="M0,100 L308.824,100 L308.824,0 L0,0" fill="none" stroke-width="8.333" stroke-dasharray="none"/><g><g stroke-dasharray="none"><path d="M-8.333,91.667L8.333,91.667L8.333,108.333L-8.333,108.333z" stroke-width="0" fill="none"/></g></g></g><g fill="#9999FF" stroke="#9999FF" stroke-opacity="1" opacity="1" transform="scale(1,1) translate(0,0)"><path fill="none" stroke-width="1" stroke-dasharray="none" d="M0,111.333 L0,141.146 L134.112,141.146 M174.712,141.146 L308.824,141.146 L308.824,111.333 M320.157,100 L349.969,100 L349.969,66.439 M349.969,33.561 L349.969,0 L320.157,0 M308.824,-11.333 L308.824,-41.146 L174.712,-41.146 M134.112,-41.146 L0,-41.146 L0,-11.333"/><g><g stroke-dasharray="none"><path d="M-1,110.333L1,110.333L1,112.333L-1,112.333z" stroke-width="0" fill="none"/></g></g></g><g width="34.600242614746094" height="15.624999046325684" transform="scale(1,1) translate(137.112,133.333)" opacity="1"><text width="34.600242614746094" height="15.624999046325684" transform="scale(1,1) translate(0,0)" xml:space="preserve"><tspan xml:space="preserve" text-rendering="optimizeSpeed" font-size="13.88888888888889" font-weight="normal" font-style="normal" fill="#000" opacity="1" x="0" text-anchor="start" y="12.5" textLength="34.600242614746094" style="font-family: Arial, Helvetica Neue, Helvetica, sans-serif;">12' 4"</tspan></text></g><g width="26.8789119720459" height="15.624999046325684" transform="rotate(270,342.157,63.439) scale(1,1) translate(342.157,63.439)" opacity="1"><text width="26.8789119720459" height="15.624999046325684" transform="scale(1,1) translate(0,0)" xml:space="preserve"><tspan xml:space="preserve" text-rendering="optimizeSpeed" font-size="13.88888888888889" font-weight="normal" font-style="normal" fill="#000" opacity="1" x="0" text-anchor="start" y="12.5" textLength="26.8789119720459" style="font-family: Arial, Helvetica Neue, Helvetica, sans-serif;">4' 0"</tspan></text></g><g width="34.600242614746094" height="15.624999046325684" transform="rotate(360,137.112,-48.958) scale(1,1) translate(137.112,-48.958)" opacity="1"><text width="34.600242614746094" height="15.624999046325684" transform="scale(1,1) translate(0,0)" xml:space="preserve"><tspan xml:space="preserve" text-rendering="optimizeSpeed" font-size="13.88888888888889" font-weight="normal" font-style="normal" fill="#000" opacity="1" x="0" text-anchor="start" y="12.5" textLength="34.600242614746094" style="font-family: Arial, Helvetica Neue, Helvetica, sans-serif;">12' 4"</tspan></text></g><g width="26.8789119720459" height="15.624999046325684" transform="scale(1,1) translate(11.709,113.333)" opacity="1"><text width="26.8789119720459" height="15.624999046325684" transform="scale(1,1) translate(0,0)" xml:space="preserve"><tspan xml:space="preserve" text-rendering="optimizeSpeed" font-size="13.88888888888889" font-weight="normal" font-style="normal" fill="#000" opacity="1" x="0" text-anchor="start" y="12.5" textLength="26.8789119720459" style="font-family: Arial, Helvetica Neue, Helvetica, sans-serif;">2' 0"</tspan></text></g><g transform="scale(1,1) translate(0,0)" fill="black" opacity="1"><path d="M7.803,117.239 L7.803,125.052 L-0.01,121.146 L7.803,117.239 z"/></g><g transform="scale(1,1) translate(0,0)" fill="black" opacity="1"><path d="M42.494,117.239 L42.494,125.052 L50.307,121.146 L42.494,117.239 z"/></g><g width="26.8789119720459" height="15.624999046325684" transform="scale(1,1) translate(216.121,113.333)" opacity="1"><text width="26.8789119720459" height="15.624999046325684" transform="scale(1,1) translate(0,0)" xml:space="preserve"><tspan xml:space="preserve" text-rendering="optimizeSpeed" font-size="13.88888888888889" font-weight="normal" font-style="normal" fill="#000" opacity="1" x="0" text-anchor="start" y="12.5" textLength="26.8789119720459" style="font-family: Arial, Helvetica Neue, Helvetica, sans-serif;">6' 4"</tspan></text></g><g transform="scale(1,1) translate(0,0)" fill="black" opacity="1"><path d="M212.214,117.239 L212.214,125.052 L204.402,121.146 L212.214,117.239 z"/></g><g transform="scale(1,1) translate(0,0)" fill="black" opacity="1"><path d="M246.906,117.239 L246.906,125.052 L254.718,121.146 L246.906,117.239 z"/></g><g width="26.8789119720459" height="15.624999046325684" transform="rotate(360,101.317,-28.958) scale(1,1) translate(101.317,-28.958)" opacity="1"><text width="26.8789119720459" height="15.624999046325684" transform="scale(1,1) translate(0,0)" xml:space="preserve"><tspan xml:space="preserve" text-rendering="optimizeSpeed" font-size="13.88888888888889" font-weight="normal" font-style="normal" fill="#000" opacity="1" x="0" text-anchor="start" y="12.5" textLength="26.8789119720459" style="font-family: Arial, Helvetica Neue, Helvetica, sans-serif;">9' 2"</tspan></text></g><g transform="scale(1,1) translate(0,0)" fill="black" opacity="1"><path d="M132.102,-17.239 L132.102,-25.052 L139.914,-21.146 L132.102,-17.239 z"/></g><g transform="scale(1,1) translate(0,0)" fill="black" opacity="1"><path d="M97.41,-17.239 L97.41,-25.052 L89.598,-21.146 L97.41,-17.239 z"/></g></g><g width="216.667" height="0" transform="scale(1,1) translate(116.667,375)"><g transform="scale(1,1) translate(0,0)" fill="#000000" stroke="#000000" stroke-opacity="1"><path d="M0,0 L216.667,0" fill="none" stroke-width="8.333" stroke-dasharray="none"/><g><g stroke-dasharray="none"><path d="M-8.333,-8.333L8.333,-8.333L8.333,8.333L-8.333,8.333z" stroke-width="0" fill="none"/></g></g></g><g fill="#9999FF" stroke="#9999FF" stroke-opacity="1" opacity="1" transform="scale(1,1) translate(0,0)"><path fill="none" stroke-width="1" stroke-dasharray="none" d="M0,-11.333 L0,-41.146 L91.894,-41.146 M124.773,-41.146 L216.667,-41.146 L216.667,-11.333"/><g><g stroke-dasharray="none"><path d="M-1,-12.333L1,-12.333L1,-10.333L-1,-10.333z" stroke-width="0" fill="none"/></g></g></g><g width="26.8789119720459" height="15.624999046325684" transform="scale(1,1) translate(94.894,-48.958)" opacity="1"><text width="26.8789119720459" height="15.624999046325684" transform="scale(1,1) translate(0,0)" xml:space="preserve"><tspan xml:space="preserve" text-rendering="optimizeSpeed" font-size="13.88888888888889" font-weight="normal" font-style="normal" fill="#000" opacity="1" x="0" text-anchor="start" y="12.5" textLength="26.8789119720459" style="font-family: Arial, Helvetica Neue, Helvetica, sans-serif;">8' 8"</tspan></text></g></g><g width="100" height="15" transform="scale(1,1) translate(175.297,684.081)"><g stroke="#BFBFBF" stroke-opacity="1" stroke-width="0" stroke-dasharray="none" width="100" height="15" transform="scale(1,1) translate(0,0)" fill="#FFFFFF" fill-opacity="1"><rect width="100" height="15"/></g><g fill="#9999FF" stroke="#9999FF" stroke-opacity="1" opacity="0" transform="scale(1,1) translate(0,0)"><path fill="none" stroke-width="1" stroke-dasharray="none" d="M0,0"/></g><g width="26.8789119720459" height="15.624999046325684" transform="scale(1,1) translate(36.561,-20.625)" opacity="0"><text width="26.8789119720459" height="15.624999046325684" transform="scale(1,1) translate(0,0)" xml:space="preserve"><tspan xml:space="preserve" text-rendering="optimizeSpeed" font-size="13.88888888888889" font-weight="normal" font-style="normal" fill="#000" opacity="1" x="0" text-anchor="start" y="12.5" textLength="26.8789119720459" style="font-family: Arial, Helvetica Neue, Helvetica, sans-serif;">4' 0"</tspan></text></g><g transform="scale(1,1) translate(0,0)" fill="black" opacity="0"><path d="M32.654,-16.719 L32.654,-8.906 L24.842,-12.812 L32.654,-16.719 z"/></g><g transform="scale(1,1) translate(0,0)" fill="black" opacity="0"><path d="M67.346,-16.719 L67.346,-8.906 L75.158,-12.812 L67.346,-16.719 z"/></g><g width="26.8789119720459" height="15.624999046325684" transform="rotate(270,105,20.939) scale(1,1) translate(105,20.939)" opacity="0"><text width="26.8789119720459" height="15.624999046325684" transform="scale(1,1) translate(0,0)" xml:space="preserve"><tspan xml:space="preserve" text-rendering="optimizeSpeed" font-size="13.88888888888889" font-weight="normal" font-style="normal" fill="#000" opacity="1" x="0" text-anchor="start" y="12.5" textLength="26.8789119720459" style="font-family: Arial, Helvetica Neue, Helvetica, sans-serif;">0' 7"</tspan></text></g><g transform="scale(1,1) translate(0,0)" fill="black" opacity="0"><path d="M116.719,-9.846 L108.906,-9.846 L112.812,-17.658 L116.719,-9.846 z"/></g><g transform="scale(1,1) translate(0,0)" fill="black" opacity="0"><path d="M116.719,24.846 L108.906,24.846 L112.812,32.658 L116.719,24.846 z"/></g></g><g width="74.703" height="15" transform="scale(1,1) translate(221.203,1045.586)"><g stroke="#BFBFBF" stroke-opacity="1" stroke-width="0" stroke-dasharray="none" width="74.703" height="15" transform="scale(1,1) translate(0,0)" fill="#FFFFFF" fill-opacity="1"><rect width="74.703" height="15"/></g><g fill="#9999FF" stroke="#9999FF" stroke-opacity="1" opacity="1" transform="scale(1,1) translate(0,0)"><path fill="none" stroke-width="1" stroke-dasharray="none" d="M0,0"/></g><g width="26.8789119720459" height="15.624999046325684" transform="scale(1,1) translate(23.912,-20.625)" opacity="1"><text width="26.8789119720459" height="15.624999046325684" transform="scale(1,1) translate(0,0)" xml:space="preserve"><tspan xml:space="preserve" text-rendering="optimizeSpeed" font-size="13.88888888888889" font-weight="normal" font-style="normal" fill="#000" opacity="1" x="0" text-anchor="start" y="12.5" textLength="26.8789119720459" style="font-family: Arial, Helvetica Neue, Helvetica, sans-serif;">3' 0"</tspan></text></g><g transform="scale(1,1) translate(0,0)" fill="black" opacity="1"><path d="M20.006,-16.719 L20.006,-8.906 L12.193,-12.812 L20.006,-16.719 z"/></g><g transform="scale(1,1) translate(0,0)" fill="black" opacity="1"><path d="M54.697,-16.719 L54.697,-8.906 L62.51,-12.812 L54.697,-16.719 z"/></g><g width="26.8789119720459" height="15.624999046325684" transform="rotate(270,79.703,20.939) scale(1,1) translate(79.703,20.939)" opacity="1"><text width="26.8789119720459" height="15.624999046325684" transform="scale(1,1) translate(0,0)" xml:space="preserve"><tspan xml:space="preserve" text-rendering="optimizeSpeed" font-size="13.88888888888889" font-weight="normal" font-style="normal" fill="#000" opacity="1" x="0" text-anchor="start" y="12.5" textLength="26.8789119720459" style="font-family: Arial, Helvetica Neue, Helvetica, sans-serif;">0' 7"</tspan></text></g><g transform="scale(1,1) translate(0,0)" fill="black" opacity="1"><path d="M91.422,-9.846 L83.61,-9.846 L87.516,-17.658 L91.422,-9.846 z"/></g><g transform="scale(1,1) translate(0,0)" fill="black" opacity="1"><path d="M91.422,24.846 L83.61,24.846 L87.516,32.658 L91.422,24.846 z"/></g></g><g width="74.753" height="15" transform="scale(1,1) translate(354.512,584.081)"><g stroke="#BFBFBF" stroke-opacity="1" stroke-width="0" stroke-dasharray="none" width="74.753" height="15" transform="scale(1,1) translate(0,0)" fill="#FFFFFF" fill-opacity="1"><rect width="74.753" height="15"/></g><g fill="#9999FF" stroke="#9999FF" stroke-opacity="1" opacity="0" transform="scale(1,1) translate(0,0)"><path fill="none" stroke-width="1" stroke-dasharray="none" d="M0,0"/></g><g width="26.8789119720459" height="15.624999046325684" transform="scale(1,1) translate(23.937,-20.625)" opacity="0"><text width="26.8789119720459" height="15.624999046325684" transform="scale(1,1) translate(0,0)" xml:space="preserve"><tspan xml:space="preserve" text-rendering="optimizeSpeed" font-size="13.88888888888889" font-weight="normal" font-style="normal" fill="#000" opacity="1" x="0" text-anchor="start" y="12.5" textLength="26.8789119720459" style="font-family: Arial, Helvetica Neue, Helvetica, sans-serif;">3' 0"</tspan></text></g><g transform="scale(1,1) translate(0,0)" fill="black" opacity="0"><path d="M20.031,-16.719 L20.031,-8.906 L12.218,-12.812 L20.031,-16.719 z"/></g><g transform="scale(1,1) translate(0,0)" fill="black" opacity="0"><path d="M54.722,-16.719 L54.722,-8.906 L62.535,-12.812 L54.722,-16.719 z"/></g><g width="26.8789119720459" height="15.624999046325684" transform="rotate(270,79.753,20.939) scale(1,1) translate(79.753,20.939)" opacity="0"><text width="26.8789119720459" height="15.624999046325684" transform="scale(1,1) translate(0,0)" xml:space="preserve"><tspan xml:space="preserve" text-rendering="optimizeSpeed" font-size="13.88888888888889" font-weight="normal" font-style="normal" fill="#000" opacity="1" x="0" text-anchor="start" y="12.5" textLength="26.8789119720459" style="font-family: Arial, Helvetica Neue, Helvetica, sans-serif;">0' 7"</tspan></text></g><g transform="scale(1,1) translate(0,0)" fill="black" opacity="0"><path d="M91.472,-9.846 L83.659,-9.846 L87.565,-17.658 L91.472,-9.846 z"/></g><g transform="scale(1,1) translate(0,0)" fill="black" opacity="0"><path d="M91.472,24.846 L83.659,24.846 L87.565,32.658 L91.472,24.846 z"/></g></g><g width="74.703" height="15" transform="scale(1,1) translate(354.537,192.414)"><g stroke="#BFBFBF" stroke-opacity="1" stroke-width="0" stroke-dasharray="none" width="74.703" height="15" transform="scale(1,1) translate(0,0)" fill="#FFFFFF" fill-opacity="1"><rect width="74.703" height="15"/></g><g fill="#9999FF" stroke="#9999FF" stroke-opacity="1" opacity="0" transform="scale(1,1) translate(0,0)"><path fill="none" stroke-width="1" stroke-dasharray="none" d="M0,0"/></g><g width="26.8789119720459" height="15.624999046325684" transform="scale(1,1) translate(23.912,-20.625)" opacity="0"><text width="26.8789119720459" height="15.624999046325684" transform="scale(1,1) translate(0,0)" xml:space="preserve"><tspan xml:space="preserve" text-rendering="optimizeSpeed" font-size="13.88888888888889" font-weight="normal" font-style="normal" fill="#000" opacity="1" x="0" text-anchor="start" y="12.5" textLength="26.8789119720459" style="font-family: Arial, Helvetica Neue, Helvetica, sans-serif;">3' 0"</tspan></text></g><g transform="scale(1,1) translate(0,0)" fill="black" opacity="0"><path d="M20.006,-16.719 L20.006,-8.906 L12.193,-12.812 L20.006,-16.719 z"/></g><g transform="scale(1,1) translate(0,0)" fill="black" opacity="0"><path d="M54.697,-16.719 L54.697,-8.906 L62.51,-12.812 L54.697,-16.719 z"/></g><g width="26.8789119720459" height="15.624999046325684" transform="rotate(270,79.703,20.939) scale(1,1) translate(79.703,20.939)" opacity="0"><text width="26.8789119720459" height="15.624999046325684" transform="scale(1,1) translate(0,0)" xml:space="preserve"><tspan xml:space="preserve" text-rendering="optimizeSpeed" font-size="13.88888888888889" font-weight="normal" font-style="normal" fill="#000" opacity="1" x="0" text-anchor="start" y="12.5" textLength="26.8789119720459" style="font-family: Arial, Helvetica Neue, Helvetica, sans-serif;">0' 7"</tspan></text></g><g transform="scale(1,1) translate(0,0)" fill="black" opacity="0"><path d="M91.422,-9.846 L83.61,-9.846 L87.516,-17.658 L91.422,-9.846 z"/></g><g transform="scale(1,1) translate(0,0)" fill="black" opacity="0"><path d="M91.422,24.846 L83.61,24.846 L87.516,32.658 L91.422,24.846 z"/></g></g><g width="63.758" height="15" transform="rotate(90,333.419,266.856) scale(1,1) translate(301.54,259.356)"><g stroke="#BFBFBF" stroke-opacity="1" stroke-width="0" stroke-dasharray="none" width="63.758" height="15" transform="scale(1,1) translate(0,0)" fill="#FFFFFF" fill-opacity="1"><rect width="63.758" height="15"/></g><g fill="#9999FF" stroke="#9999FF" stroke-opacity="1" opacity="0" transform="scale(1,1) translate(0,0)"><path fill="none" stroke-width="1" stroke-dasharray="none" d="M0,0"/></g><g width="26.8789119720459" height="15.624999046325684" transform="rotate(180,45.319,-5) scale(1,1) translate(45.319,-5)" opacity="0"><text width="26.8789119720459" height="15.624999046325684" transform="scale(1,1) translate(0,0)" xml:space="preserve"><tspan xml:space="preserve" text-rendering="optimizeSpeed" font-size="13.88888888888889" font-weight="normal" font-style="normal" fill="#000" opacity="1" x="0" text-anchor="start" y="12.5" textLength="26.8789119720459" style="font-family: Arial, Helvetica Neue, Helvetica, sans-serif;">2' 7"</tspan></text></g><g transform="scale(1,1) translate(0,0)" fill="black" opacity="0"><path d="M14.533,-16.719 L14.533,-8.906 L6.721,-12.812 L14.533,-16.719 z"/></g><g transform="scale(1,1) translate(0,0)" fill="black" opacity="0"><path d="M49.225,-16.719 L49.225,-8.906 L57.037,-12.812 L49.225,-16.719 z"/></g><g width="26.8789119720459" height="15.624999046325684" transform="rotate(270,68.758,20.939) scale(1,1) translate(68.758,20.939)" opacity="0"><text width="26.8789119720459" height="15.624999046325684" transform="scale(1,1) translate(0,0)" xml:space="preserve"><tspan xml:space="preserve" text-rendering="optimizeSpeed" font-size="13.88888888888889" font-weight="normal" font-style="normal" fill="#000" opacity="1" x="0" text-anchor="start" y="12.5" textLength="26.8789119720459" style="font-family: Arial, Helvetica Neue, Helvetica, sans-serif;">0' 7"</tspan></text></g><g transform="scale(1,1) translate(0,0)" fill="black" opacity="0"><path d="M80.477,-9.846 L72.665,-9.846 L76.571,-17.658 L80.477,-9.846 z"/></g><g transform="scale(1,1) translate(0,0)" fill="black" opacity="0"><path d="M80.477,24.846 L72.665,24.846 L76.571,32.658 L80.477,24.846 z"/></g></g><g width="83.251" height="15" transform="rotate(90,333.419,533.58) scale(1,1) translate(291.794,526.08)"><g stroke="#BFBFBF" stroke-opacity="1" stroke-width="0" stroke-dasharray="none" width="83.251" height="15" transform="scale(1,1) translate(0,0)" fill="#FFFFFF" fill-opacity="1"><rect width="83.251" height="15"/></g><g fill="#9999FF" stroke="#9999FF" stroke-opacity="1" opacity="0" transform="scale(1,1) translate(0,0)"><path fill="none" stroke-width="1" stroke-dasharray="none" d="M0,0"/></g><g width="26.8789119720459" height="15.624999046325684" transform="rotate(180,55.065,-5) scale(1,1) translate(55.065,-5)" opacity="0"><text width="26.8789119720459" height="15.624999046325684" transform="scale(1,1) translate(0,0)" xml:space="preserve"><tspan xml:space="preserve" text-rendering="optimizeSpeed" font-size="13.88888888888889" font-weight="normal" font-style="normal" fill="#000" opacity="1" x="0" text-anchor="start" y="12.5" textLength="26.8789119720459" style="font-family: Arial, Helvetica Neue, Helvetica, sans-serif;">3' 4"</tspan></text></g><g transform="scale(1,1) translate(0,0)" fill="black" opacity="0"><path d="M24.28,-16.719 L24.28,-8.906 L16.467,-12.812 L24.28,-16.719 z"/></g><g transform="scale(1,1) translate(0,0)" fill="black" opacity="0"><path d="M58.971,-16.719 L58.971,-8.906 L66.784,-12.812 L58.971,-16.719 z"/></g><g width="26.8789119720459" height="15.624999046325684" transform="rotate(270,88.251,20.939) scale(1,1) translate(88.251,20.939)" opacity="0"><text width="26.8789119720459" height="15.624999046325684" transform="scale(1,1) translate(0,0)" xml:space="preserve"><tspan xml:space="preserve" text-rendering="optimizeSpeed" font-size="13.88888888888889" font-weight="normal" font-style="normal" fill="#000" opacity="1" x="0" text-anchor="start" y="12.5" textLength="26.8789119720459" style="font-family: Arial, Helvetica Neue, Helvetica, sans-serif;">0' 7"</tspan></text></g><g transform="scale(1,1) translate(0,0)" fill="black" opacity="0"><path d="M99.97,-9.846 L92.157,-9.846 L96.063,-17.658 L99.97,-9.846 z"/></g><g transform="scale(1,1) translate(0,0)" fill="black" opacity="0"><path d="M99.97,24.846 L92.157,24.846 L96.063,32.658 L99.97,24.846 z"/></g></g><g width="100" height="15" transform="rotate(90,333.419,783.247) scale(1,1) translate(283.419,775.747)"><g stroke="#BFBFBF" stroke-opacity="1" stroke-width="0" stroke-dasharray="none" width="100" height="15" transform="scale(1,1) translate(0,0)" fill="#FFFFFF" fill-opacity="1"><rect width="100" height="15"/></g><g fill="#9999FF" stroke="#9999FF" stroke-opacity="1" opacity="0" transform="scale(1,1) translate(0,0)"><path fill="none" stroke-width="1" stroke-dasharray="none" d="M0,0"/></g><g width="26.8789119720459" height="15.624999046325684" transform="rotate(180,63.439,-5) scale(1,1) translate(63.439,-5)" opacity="0"><text width="26.8789119720459" height="15.624999046325684" transform="scale(1,1) translate(0,0)" xml:space="preserve"><tspan xml:space="preserve" text-rendering="optimizeSpeed" font-size="13.88888888888889" font-weight="normal" font-style="normal" fill="#000" opacity="1" x="0" text-anchor="start" y="12.5" textLength="26.8789119720459" style="font-family: Arial, Helvetica Neue, Helvetica, sans-serif;">4' 0"</tspan></text></g><g transform="scale(1,1) translate(0,0)" fill="black" opacity="0"><path d="M32.654,-16.719 L32.654,-8.906 L24.842,-12.812 L32.654,-16.719 z"/></g><g transform="scale(1,1) translate(0,0)" fill="black" opacity="0"><path d="M67.346,-16.719 L67.346,-8.906 L75.158,-12.812 L67.346,-16.719 z"/></g><g width="26.8789119720459" height="15.624999046325684" transform="rotate(270,105,20.939) scale(1,1) translate(105,20.939)" opacity="0"><text width="26.8789119720459" height="15.624999046325684" transform="scale(1,1) translate(0,0)" xml:space="preserve"><tspan xml:space="preserve" text-rendering="optimizeSpeed" font-size="13.88888888888889" font-weight="normal" font-style="normal" fill="#000" opacity="1" x="0" text-anchor="start" y="12.5" textLength="26.8789119720459" style="font-family: Arial, Helvetica Neue, Helvetica, sans-serif;">0' 7"</tspan></text></g><g transform="scale(1,1) translate(0,0)" fill="black" opacity="0"><path d="M116.719,-9.846 L108.906,-9.846 L112.812,-17.658 L116.719,-9.846 z"/></g><g transform="scale(1,1) translate(0,0)" fill="black" opacity="0"><path d="M116.719,24.846 L108.906,24.846 L112.812,32.658 L116.719,24.846 z"/></g></g></g></svg>